<?xml version="1.0" encoding="utf-8" standalone="no"?>
<!DOCTYPE svg PUBLIC "-//W3C//DTD SVG 1.1//EN"
  "http://www.w3.org/Graphics/SVG/1.1/DTD/svg11.dtd">
<svg xmlns:xlink="http://www.w3.org/1999/xlink" width="720pt" height="432pt" viewBox="0 0 720 432" xmlns="http://www.w3.org/2000/svg" version="1.1">
 <metadata>
  <rdf:RDF xmlns:dc="http://purl.org/dc/elements/1.1/" xmlns:cc="http://creativecommons.org/ns#" xmlns:rdf="http://www.w3.org/1999/02/22-rdf-syntax-ns#">
   <cc:Work>
    <dc:type rdf:resource="http://purl.org/dc/dcmitype/StillImage"/>
    <dc:date>2023-10-29T17:44:08.462384</dc:date>
    <dc:format>image/svg+xml</dc:format>
    <dc:creator>
     <cc:Agent>
      <dc:title>Matplotlib v3.7.1, https://matplotlib.org/</dc:title>
     </cc:Agent>
    </dc:creator>
   </cc:Work>
  </rdf:RDF>
 </metadata>
 <defs>
  <style type="text/css">*{stroke-linejoin: round; stroke-linecap: butt}</style>
 </defs>
 <g id="figure_1">
  <g id="patch_1">
   <path d="M 0 432 
L 720 432 
L 720 0 
L 0 0 
z
" style="fill: #ffffff"/>
  </g>
  <g id="axes_1">
   <g id="patch_2">
    <path d="M 57.6 401.76 
L 684 401.76 
L 684 43.2 
L 57.6 43.2 
z
" style="fill: #ffffff"/>
   </g>
   <g id="matplotlib.axis_1">
    <g id="xtick_1">
     <g id="line2d_1">
      <path d="M 57.6 401.76 
L 57.6 43.2 
" clip-path="url(#peaba2c450e)" style="fill: none; stroke: #cccccc; stroke-width: 1.3; stroke-linecap: round"/>
     </g>
     <g id="line2d_2"/>
     <g id="line2d_3"/>
     <g id="text_1">
      <!-- 50 -->
      <g style="fill: #262626" transform="translate(51.1 419.886875) scale(0.13 -0.13)">
       <defs>
        <path id="TimesNewRomanPSMT-35" d="M 2778 4238 
L 2534 3706 
L 1259 3706 
L 981 3138 
Q 1809 3016 2294 2522 
Q 2709 2097 2709 1522 
Q 2709 1188 2573 903 
Q 2438 619 2231 419 
Q 2025 219 1772 97 
Q 1413 -75 1034 -75 
Q 653 -75 479 54 
Q 306 184 306 341 
Q 306 428 378 495 
Q 450 563 559 563 
Q 641 563 702 538 
Q 763 513 909 409 
Q 1144 247 1384 247 
Q 1750 247 2026 523 
Q 2303 800 2303 1197 
Q 2303 1581 2056 1914 
Q 1809 2247 1375 2428 
Q 1034 2569 447 2591 
L 1259 4238 
L 2778 4238 
z
" transform="scale(0.015625)"/>
        <path id="TimesNewRomanPSMT-30" d="M 231 2094 
Q 231 2819 450 3342 
Q 669 3866 1031 4122 
Q 1313 4325 1613 4325 
Q 2100 4325 2488 3828 
Q 2972 3213 2972 2159 
Q 2972 1422 2759 906 
Q 2547 391 2217 158 
Q 1888 -75 1581 -75 
Q 975 -75 572 641 
Q 231 1244 231 2094 
z
M 844 2016 
Q 844 1141 1059 588 
Q 1238 122 1591 122 
Q 1759 122 1940 273 
Q 2122 425 2216 781 
Q 2359 1319 2359 2297 
Q 2359 3022 2209 3506 
Q 2097 3866 1919 4016 
Q 1791 4119 1609 4119 
Q 1397 4119 1231 3928 
Q 1006 3669 925 3112 
Q 844 2556 844 2016 
z
" transform="scale(0.015625)"/>
       </defs>
       <use xlink:href="#TimesNewRomanPSMT-35"/>
       <use xlink:href="#TimesNewRomanPSMT-30" x="50"/>
      </g>
     </g>
    </g>
    <g id="xtick_2">
     <g id="line2d_4">
      <path d="M 127.2 401.76 
L 127.2 43.2 
" clip-path="url(#peaba2c450e)" style="fill: none; stroke: #cccccc; stroke-width: 1.3; stroke-linecap: round"/>
     </g>
     <g id="line2d_5"/>
     <g id="line2d_6"/>
     <g id="text_2">
      <!-- 100 -->
      <g style="fill: #262626" transform="translate(117.45 419.886875) scale(0.13 -0.13)">
       <defs>
        <path id="TimesNewRomanPSMT-31" d="M 750 3822 
L 1781 4325 
L 1884 4325 
L 1884 747 
Q 1884 391 1914 303 
Q 1944 216 2037 169 
Q 2131 122 2419 116 
L 2419 0 
L 825 0 
L 825 116 
Q 1125 122 1212 167 
Q 1300 213 1334 289 
Q 1369 366 1369 747 
L 1369 3034 
Q 1369 3497 1338 3628 
Q 1316 3728 1258 3775 
Q 1200 3822 1119 3822 
Q 1003 3822 797 3725 
L 750 3822 
z
" transform="scale(0.015625)"/>
       </defs>
       <use xlink:href="#TimesNewRomanPSMT-31"/>
       <use xlink:href="#TimesNewRomanPSMT-30" x="50"/>
       <use xlink:href="#TimesNewRomanPSMT-30" x="100"/>
      </g>
     </g>
    </g>
    <g id="xtick_3">
     <g id="line2d_7">
      <path d="M 196.8 401.76 
L 196.8 43.2 
" clip-path="url(#peaba2c450e)" style="fill: none; stroke: #cccccc; stroke-width: 1.3; stroke-linecap: round"/>
     </g>
     <g id="line2d_8"/>
     <g id="line2d_9"/>
     <g id="text_3">
      <!-- 150 -->
      <g style="fill: #262626" transform="translate(187.05 419.886875) scale(0.13 -0.13)">
       <use xlink:href="#TimesNewRomanPSMT-31"/>
       <use xlink:href="#TimesNewRomanPSMT-35" x="50"/>
       <use xlink:href="#TimesNewRomanPSMT-30" x="100"/>
      </g>
     </g>
    </g>
    <g id="xtick_4">
     <g id="line2d_10">
      <path d="M 266.4 401.76 
L 266.4 43.2 
" clip-path="url(#peaba2c450e)" style="fill: none; stroke: #cccccc; stroke-width: 1.3; stroke-linecap: round"/>
     </g>
     <g id="line2d_11"/>
     <g id="line2d_12"/>
     <g id="text_4">
      <!-- 200 -->
      <g style="fill: #262626" transform="translate(256.65 419.886875) scale(0.13 -0.13)">
       <defs>
        <path id="TimesNewRomanPSMT-32" d="M 2934 816 
L 2638 0 
L 138 0 
L 138 116 
Q 1241 1122 1691 1759 
Q 2141 2397 2141 2925 
Q 2141 3328 1894 3587 
Q 1647 3847 1303 3847 
Q 991 3847 742 3664 
Q 494 3481 375 3128 
L 259 3128 
Q 338 3706 661 4015 
Q 984 4325 1469 4325 
Q 1984 4325 2329 3994 
Q 2675 3663 2675 3213 
Q 2675 2891 2525 2569 
Q 2294 2063 1775 1497 
Q 997 647 803 472 
L 1909 472 
Q 2247 472 2383 497 
Q 2519 522 2628 598 
Q 2738 675 2819 816 
L 2934 816 
z
" transform="scale(0.015625)"/>
       </defs>
       <use xlink:href="#TimesNewRomanPSMT-32"/>
       <use xlink:href="#TimesNewRomanPSMT-30" x="50"/>
       <use xlink:href="#TimesNewRomanPSMT-30" x="100"/>
      </g>
     </g>
    </g>
    <g id="xtick_5">
     <g id="line2d_13">
      <path d="M 336 401.76 
L 336 43.2 
" clip-path="url(#peaba2c450e)" style="fill: none; stroke: #cccccc; stroke-width: 1.3; stroke-linecap: round"/>
     </g>
     <g id="line2d_14"/>
     <g id="line2d_15"/>
     <g id="text_5">
      <!-- 250 -->
      <g style="fill: #262626" transform="translate(326.25 419.886875) scale(0.13 -0.13)">
       <use xlink:href="#TimesNewRomanPSMT-32"/>
       <use xlink:href="#TimesNewRomanPSMT-35" x="50"/>
       <use xlink:href="#TimesNewRomanPSMT-30" x="100"/>
      </g>
     </g>
    </g>
    <g id="xtick_6">
     <g id="line2d_16">
      <path d="M 405.6 401.76 
L 405.6 43.2 
" clip-path="url(#peaba2c450e)" style="fill: none; stroke: #cccccc; stroke-width: 1.3; stroke-linecap: round"/>
     </g>
     <g id="line2d_17"/>
     <g id="line2d_18"/>
     <g id="text_6">
      <!-- 300 -->
      <g style="fill: #262626" transform="translate(395.85 419.886875) scale(0.13 -0.13)">
       <defs>
        <path id="TimesNewRomanPSMT-33" d="M 325 3431 
Q 506 3859 782 4092 
Q 1059 4325 1472 4325 
Q 1981 4325 2253 3994 
Q 2459 3747 2459 3466 
Q 2459 3003 1878 2509 
Q 2269 2356 2469 2072 
Q 2669 1788 2669 1403 
Q 2669 853 2319 450 
Q 1863 -75 997 -75 
Q 569 -75 414 31 
Q 259 138 259 259 
Q 259 350 332 419 
Q 406 488 509 488 
Q 588 488 669 463 
Q 722 447 909 348 
Q 1097 250 1169 231 
Q 1284 197 1416 197 
Q 1734 197 1970 444 
Q 2206 691 2206 1028 
Q 2206 1275 2097 1509 
Q 2016 1684 1919 1775 
Q 1784 1900 1550 2001 
Q 1316 2103 1072 2103 
L 972 2103 
L 972 2197 
Q 1219 2228 1467 2375 
Q 1716 2522 1828 2728 
Q 1941 2934 1941 3181 
Q 1941 3503 1739 3701 
Q 1538 3900 1238 3900 
Q 753 3900 428 3381 
L 325 3431 
z
" transform="scale(0.015625)"/>
       </defs>
       <use xlink:href="#TimesNewRomanPSMT-33"/>
       <use xlink:href="#TimesNewRomanPSMT-30" x="50"/>
       <use xlink:href="#TimesNewRomanPSMT-30" x="100"/>
      </g>
     </g>
    </g>
    <g id="xtick_7">
     <g id="line2d_19">
      <path d="M 475.2 401.76 
L 475.2 43.2 
" clip-path="url(#peaba2c450e)" style="fill: none; stroke: #cccccc; stroke-width: 1.3; stroke-linecap: round"/>
     </g>
     <g id="line2d_20"/>
     <g id="line2d_21"/>
     <g id="text_7">
      <!-- 350 -->
      <g style="fill: #262626" transform="translate(465.45 419.886875) scale(0.13 -0.13)">
       <use xlink:href="#TimesNewRomanPSMT-33"/>
       <use xlink:href="#TimesNewRomanPSMT-35" x="50"/>
       <use xlink:href="#TimesNewRomanPSMT-30" x="100"/>
      </g>
     </g>
    </g>
    <g id="xtick_8">
     <g id="line2d_22">
      <path d="M 544.8 401.76 
L 544.8 43.2 
" clip-path="url(#peaba2c450e)" style="fill: none; stroke: #cccccc; stroke-width: 1.3; stroke-linecap: round"/>
     </g>
     <g id="line2d_23"/>
     <g id="line2d_24"/>
     <g id="text_8">
      <!-- 400 -->
      <g style="fill: #262626" transform="translate(535.05 419.886875) scale(0.13 -0.13)">
       <defs>
        <path id="TimesNewRomanPSMT-34" d="M 2978 1563 
L 2978 1119 
L 2409 1119 
L 2409 0 
L 1894 0 
L 1894 1119 
L 100 1119 
L 100 1519 
L 2066 4325 
L 2409 4325 
L 2409 1563 
L 2978 1563 
z
M 1894 1563 
L 1894 3666 
L 406 1563 
L 1894 1563 
z
" transform="scale(0.015625)"/>
       </defs>
       <use xlink:href="#TimesNewRomanPSMT-34"/>
       <use xlink:href="#TimesNewRomanPSMT-30" x="50"/>
       <use xlink:href="#TimesNewRomanPSMT-30" x="100"/>
      </g>
     </g>
    </g>
    <g id="xtick_9">
     <g id="line2d_25">
      <path d="M 614.4 401.76 
L 614.4 43.2 
" clip-path="url(#peaba2c450e)" style="fill: none; stroke: #cccccc; stroke-width: 1.3; stroke-linecap: round"/>
     </g>
     <g id="line2d_26"/>
     <g id="line2d_27"/>
     <g id="text_9">
      <!-- 450 -->
      <g style="fill: #262626" transform="translate(604.65 419.886875) scale(0.13 -0.13)">
       <use xlink:href="#TimesNewRomanPSMT-34"/>
       <use xlink:href="#TimesNewRomanPSMT-35" x="50"/>
       <use xlink:href="#TimesNewRomanPSMT-30" x="100"/>
      </g>
     </g>
    </g>
    <g id="xtick_10">
     <g id="line2d_28">
      <path d="M 684 401.76 
L 684 43.2 
" clip-path="url(#peaba2c450e)" style="fill: none; stroke: #cccccc; stroke-width: 1.3; stroke-linecap: round"/>
     </g>
     <g id="line2d_29"/>
     <g id="line2d_30"/>
     <g id="text_10">
      <!-- 500 -->
      <g style="fill: #262626" transform="translate(674.25 419.886875) scale(0.13 -0.13)">
       <use xlink:href="#TimesNewRomanPSMT-35"/>
       <use xlink:href="#TimesNewRomanPSMT-30" x="50"/>
       <use xlink:href="#TimesNewRomanPSMT-30" x="100"/>
      </g>
     </g>
    </g>
    <g id="text_11">
     <!-- Days Open -->
     <g style="fill: #262626" transform="translate(338.829445 437.570406) scale(0.143 -0.143)">
      <defs>
       <path id="TimesNewRomanPSMT-44" d="M 109 0 
L 109 116 
L 269 116 
Q 538 116 650 288 
Q 719 391 719 750 
L 719 3488 
Q 719 3884 631 3984 
Q 509 4122 269 4122 
L 109 4122 
L 109 4238 
L 1834 4238 
Q 2784 4238 3279 4022 
Q 3775 3806 4076 3303 
Q 4378 2800 4378 2141 
Q 4378 1256 3841 663 
Q 3238 0 2003 0 
L 109 0 
z
M 1319 306 
Q 1716 219 1984 219 
Q 2709 219 3187 728 
Q 3666 1238 3666 2109 
Q 3666 2988 3187 3494 
Q 2709 4000 1959 4000 
Q 1678 4000 1319 3909 
L 1319 306 
z
" transform="scale(0.015625)"/>
       <path id="TimesNewRomanPSMT-61" d="M 1822 413 
Q 1381 72 1269 19 
Q 1100 -59 909 -59 
Q 613 -59 420 144 
Q 228 347 228 678 
Q 228 888 322 1041 
Q 450 1253 767 1440 
Q 1084 1628 1822 1897 
L 1822 2009 
Q 1822 2438 1686 2597 
Q 1550 2756 1291 2756 
Q 1094 2756 978 2650 
Q 859 2544 859 2406 
L 866 2225 
Q 866 2081 792 2003 
Q 719 1925 600 1925 
Q 484 1925 411 2006 
Q 338 2088 338 2228 
Q 338 2497 613 2722 
Q 888 2947 1384 2947 
Q 1766 2947 2009 2819 
Q 2194 2722 2281 2516 
Q 2338 2381 2338 1966 
L 2338 994 
Q 2338 584 2353 492 
Q 2369 400 2405 369 
Q 2441 338 2488 338 
Q 2538 338 2575 359 
Q 2641 400 2828 588 
L 2828 413 
Q 2478 -56 2159 -56 
Q 2006 -56 1915 50 
Q 1825 156 1822 413 
z
M 1822 616 
L 1822 1706 
Q 1350 1519 1213 1441 
Q 966 1303 859 1153 
Q 753 1003 753 825 
Q 753 600 887 451 
Q 1022 303 1197 303 
Q 1434 303 1822 616 
z
" transform="scale(0.015625)"/>
       <path id="TimesNewRomanPSMT-79" d="M 38 2863 
L 1372 2863 
L 1372 2747 
L 1306 2747 
Q 1166 2747 1095 2686 
Q 1025 2625 1025 2534 
Q 1025 2413 1128 2197 
L 1825 753 
L 2466 2334 
Q 2519 2463 2519 2588 
Q 2519 2644 2497 2672 
Q 2472 2706 2419 2726 
Q 2366 2747 2231 2747 
L 2231 2863 
L 3163 2863 
L 3163 2747 
Q 3047 2734 2984 2696 
Q 2922 2659 2847 2556 
Q 2819 2513 2741 2316 
L 1575 -541 
Q 1406 -956 1132 -1168 
Q 859 -1381 606 -1381 
Q 422 -1381 303 -1275 
Q 184 -1169 184 -1031 
Q 184 -900 270 -820 
Q 356 -741 506 -741 
Q 609 -741 788 -809 
Q 913 -856 944 -856 
Q 1038 -856 1148 -759 
Q 1259 -663 1372 -384 
L 1575 113 
L 547 2272 
Q 500 2369 397 2513 
Q 319 2622 269 2659 
Q 197 2709 38 2747 
L 38 2863 
z
" transform="scale(0.015625)"/>
       <path id="TimesNewRomanPSMT-73" d="M 2050 2947 
L 2050 1972 
L 1947 1972 
Q 1828 2431 1642 2597 
Q 1456 2763 1169 2763 
Q 950 2763 815 2647 
Q 681 2531 681 2391 
Q 681 2216 781 2091 
Q 878 1963 1175 1819 
L 1631 1597 
Q 2266 1288 2266 781 
Q 2266 391 1970 151 
Q 1675 -88 1309 -88 
Q 1047 -88 709 6 
Q 606 38 541 38 
Q 469 38 428 -44 
L 325 -44 
L 325 978 
L 428 978 
Q 516 541 762 319 
Q 1009 97 1316 97 
Q 1531 97 1667 223 
Q 1803 350 1803 528 
Q 1803 744 1651 891 
Q 1500 1038 1047 1263 
Q 594 1488 453 1669 
Q 313 1847 313 2119 
Q 313 2472 555 2709 
Q 797 2947 1181 2947 
Q 1350 2947 1591 2875 
Q 1750 2828 1803 2828 
Q 1853 2828 1881 2850 
Q 1909 2872 1947 2947 
L 2050 2947 
z
" transform="scale(0.015625)"/>
       <path id="TimesNewRomanPSMT-20" transform="scale(0.015625)"/>
       <path id="TimesNewRomanPSMT-4f" d="M 2341 4334 
Q 3166 4334 3770 3707 
Q 4375 3081 4375 2144 
Q 4375 1178 3765 540 
Q 3156 -97 2291 -97 
Q 1416 -97 820 525 
Q 225 1147 225 2134 
Q 225 3144 913 3781 
Q 1509 4334 2341 4334 
z
M 2281 4106 
Q 1713 4106 1369 3684 
Q 941 3159 941 2147 
Q 941 1109 1384 550 
Q 1725 125 2284 125 
Q 2881 125 3270 590 
Q 3659 1056 3659 2059 
Q 3659 3147 3231 3681 
Q 2888 4106 2281 4106 
z
" transform="scale(0.015625)"/>
       <path id="TimesNewRomanPSMT-70" d="M -6 2578 
L 875 2934 
L 994 2934 
L 994 2266 
Q 1216 2644 1439 2795 
Q 1663 2947 1909 2947 
Q 2341 2947 2628 2609 
Q 2981 2197 2981 1534 
Q 2981 794 2556 309 
Q 2206 -88 1675 -88 
Q 1444 -88 1275 -22 
Q 1150 25 994 166 
L 994 -706 
Q 994 -1000 1030 -1079 
Q 1066 -1159 1155 -1206 
Q 1244 -1253 1478 -1253 
L 1478 -1369 
L -22 -1369 
L -22 -1253 
L 56 -1253 
Q 228 -1256 350 -1188 
Q 409 -1153 442 -1076 
Q 475 -1000 475 -688 
L 475 2019 
Q 475 2297 450 2372 
Q 425 2447 370 2484 
Q 316 2522 222 2522 
Q 147 2522 31 2478 
L -6 2578 
z
M 994 2081 
L 994 1013 
Q 994 666 1022 556 
Q 1066 375 1236 237 
Q 1406 100 1666 100 
Q 1978 100 2172 344 
Q 2425 663 2425 1241 
Q 2425 1897 2138 2250 
Q 1938 2494 1663 2494 
Q 1513 2494 1366 2419 
Q 1253 2363 994 2081 
z
" transform="scale(0.015625)"/>
       <path id="TimesNewRomanPSMT-65" d="M 681 1784 
Q 678 1147 991 784 
Q 1303 422 1725 422 
Q 2006 422 2214 576 
Q 2422 731 2563 1106 
L 2659 1044 
Q 2594 616 2278 264 
Q 1963 -88 1488 -88 
Q 972 -88 605 314 
Q 238 716 238 1394 
Q 238 2128 614 2539 
Q 991 2950 1559 2950 
Q 2041 2950 2350 2633 
Q 2659 2316 2659 1784 
L 681 1784 
z
M 681 1966 
L 2006 1966 
Q 1991 2241 1941 2353 
Q 1863 2528 1708 2628 
Q 1553 2728 1384 2728 
Q 1125 2728 920 2526 
Q 716 2325 681 1966 
z
" transform="scale(0.015625)"/>
       <path id="TimesNewRomanPSMT-6e" d="M 1034 2341 
Q 1538 2947 1994 2947 
Q 2228 2947 2397 2830 
Q 2566 2713 2666 2444 
Q 2734 2256 2734 1869 
L 2734 647 
Q 2734 375 2778 278 
Q 2813 200 2889 156 
Q 2966 113 3172 113 
L 3172 0 
L 1756 0 
L 1756 113 
L 1816 113 
Q 2016 113 2095 173 
Q 2175 234 2206 353 
Q 2219 400 2219 647 
L 2219 1819 
Q 2219 2209 2117 2386 
Q 2016 2563 1775 2563 
Q 1403 2563 1034 2156 
L 1034 647 
Q 1034 356 1069 288 
Q 1113 197 1189 155 
Q 1266 113 1500 113 
L 1500 0 
L 84 0 
L 84 113 
L 147 113 
Q 366 113 442 223 
Q 519 334 519 647 
L 519 1709 
Q 519 2225 495 2337 
Q 472 2450 423 2490 
Q 375 2531 294 2531 
Q 206 2531 84 2484 
L 38 2597 
L 900 2947 
L 1034 2947 
L 1034 2341 
z
" transform="scale(0.015625)"/>
      </defs>
      <use xlink:href="#TimesNewRomanPSMT-44"/>
      <use xlink:href="#TimesNewRomanPSMT-61" x="72.216797"/>
      <use xlink:href="#TimesNewRomanPSMT-79" x="116.601562"/>
      <use xlink:href="#TimesNewRomanPSMT-73" x="166.601562"/>
      <use xlink:href="#TimesNewRomanPSMT-20" x="205.517578"/>
      <use xlink:href="#TimesNewRomanPSMT-4f" x="230.517578"/>
      <use xlink:href="#TimesNewRomanPSMT-70" x="302.734375"/>
      <use xlink:href="#TimesNewRomanPSMT-65" x="352.734375"/>
      <use xlink:href="#TimesNewRomanPSMT-6e" x="397.119141"/>
     </g>
    </g>
   </g>
   <g id="matplotlib.axis_2">
    <g id="ytick_1">
     <g id="line2d_31">
      <path d="M 57.6 401.76 
L 684 401.76 
" clip-path="url(#peaba2c450e)" style="fill: none; stroke: #cccccc; stroke-width: 1.3; stroke-linecap: round"/>
     </g>
     <g id="line2d_32"/>
     <g id="line2d_33"/>
     <g id="text_12">
      <!-- 0 -->
      <g style="fill: #262626" transform="translate(42 404.883047) scale(0.13 -0.13)">
       <use xlink:href="#TimesNewRomanPSMT-30"/>
      </g>
     </g>
    </g>
    <g id="ytick_2">
     <g id="line2d_34">
      <path d="M 57.6 330.048 
L 684 330.048 
" clip-path="url(#peaba2c450e)" style="fill: none; stroke: #cccccc; stroke-width: 1.3; stroke-linecap: round"/>
     </g>
     <g id="line2d_35"/>
     <g id="line2d_36"/>
     <g id="text_13">
      <!-- 200 -->
      <g style="fill: #262626" transform="translate(29 333.171047) scale(0.13 -0.13)">
       <use xlink:href="#TimesNewRomanPSMT-32"/>
       <use xlink:href="#TimesNewRomanPSMT-30" x="50"/>
       <use xlink:href="#TimesNewRomanPSMT-30" x="100"/>
      </g>
     </g>
    </g>
    <g id="ytick_3">
     <g id="line2d_37">
      <path d="M 57.6 258.336 
L 684 258.336 
" clip-path="url(#peaba2c450e)" style="fill: none; stroke: #cccccc; stroke-width: 1.3; stroke-linecap: round"/>
     </g>
     <g id="line2d_38"/>
     <g id="line2d_39"/>
     <g id="text_14">
      <!-- 400 -->
      <g style="fill: #262626" transform="translate(29 261.459047) scale(0.13 -0.13)">
       <use xlink:href="#TimesNewRomanPSMT-34"/>
       <use xlink:href="#TimesNewRomanPSMT-30" x="50"/>
       <use xlink:href="#TimesNewRomanPSMT-30" x="100"/>
      </g>
     </g>
    </g>
    <g id="ytick_4">
     <g id="line2d_40">
      <path d="M 57.6 186.624 
L 684 186.624 
" clip-path="url(#peaba2c450e)" style="fill: none; stroke: #cccccc; stroke-width: 1.3; stroke-linecap: round"/>
     </g>
     <g id="line2d_41"/>
     <g id="line2d_42"/>
     <g id="text_15">
      <!-- 600 -->
      <g style="fill: #262626" transform="translate(29 189.747047) scale(0.13 -0.13)">
       <defs>
        <path id="TimesNewRomanPSMT-36" d="M 2869 4325 
L 2869 4209 
Q 2456 4169 2195 4045 
Q 1934 3922 1679 3669 
Q 1425 3416 1258 3105 
Q 1091 2794 978 2366 
Q 1428 2675 1881 2675 
Q 2316 2675 2634 2325 
Q 2953 1975 2953 1425 
Q 2953 894 2631 456 
Q 2244 -75 1606 -75 
Q 1172 -75 869 213 
Q 275 772 275 1663 
Q 275 2231 503 2743 
Q 731 3256 1154 3653 
Q 1578 4050 1965 4187 
Q 2353 4325 2688 4325 
L 2869 4325 
z
M 925 2138 
Q 869 1716 869 1456 
Q 869 1156 980 804 
Q 1091 453 1309 247 
Q 1469 100 1697 100 
Q 1969 100 2183 356 
Q 2397 613 2397 1088 
Q 2397 1622 2184 2012 
Q 1972 2403 1581 2403 
Q 1463 2403 1327 2353 
Q 1191 2303 925 2138 
z
" transform="scale(0.015625)"/>
       </defs>
       <use xlink:href="#TimesNewRomanPSMT-36"/>
       <use xlink:href="#TimesNewRomanPSMT-30" x="50"/>
       <use xlink:href="#TimesNewRomanPSMT-30" x="100"/>
      </g>
     </g>
    </g>
    <g id="ytick_5">
     <g id="line2d_43">
      <path d="M 57.6 114.912 
L 684 114.912 
" clip-path="url(#peaba2c450e)" style="fill: none; stroke: #cccccc; stroke-width: 1.3; stroke-linecap: round"/>
     </g>
     <g id="line2d_44"/>
     <g id="line2d_45"/>
     <g id="text_16">
      <!-- 800 -->
      <g style="fill: #262626" transform="translate(29 118.035047) scale(0.13 -0.13)">
       <defs>
        <path id="TimesNewRomanPSMT-38" d="M 1228 2134 
Q 725 2547 579 2797 
Q 434 3047 434 3316 
Q 434 3728 753 4026 
Q 1072 4325 1600 4325 
Q 2113 4325 2425 4047 
Q 2738 3769 2738 3413 
Q 2738 3175 2569 2928 
Q 2400 2681 1866 2347 
Q 2416 1922 2594 1678 
Q 2831 1359 2831 1006 
Q 2831 559 2490 242 
Q 2150 -75 1597 -75 
Q 994 -75 656 303 
Q 388 606 388 966 
Q 388 1247 577 1523 
Q 766 1800 1228 2134 
z
M 1719 2469 
Q 2094 2806 2194 3001 
Q 2294 3197 2294 3444 
Q 2294 3772 2109 3958 
Q 1925 4144 1606 4144 
Q 1288 4144 1088 3959 
Q 888 3775 888 3528 
Q 888 3366 970 3203 
Q 1053 3041 1206 2894 
L 1719 2469 
z
M 1375 2016 
Q 1116 1797 991 1539 
Q 866 1281 866 981 
Q 866 578 1086 336 
Q 1306 94 1647 94 
Q 1984 94 2187 284 
Q 2391 475 2391 747 
Q 2391 972 2272 1150 
Q 2050 1481 1375 2016 
z
" transform="scale(0.015625)"/>
       </defs>
       <use xlink:href="#TimesNewRomanPSMT-38"/>
       <use xlink:href="#TimesNewRomanPSMT-30" x="50"/>
       <use xlink:href="#TimesNewRomanPSMT-30" x="100"/>
      </g>
     </g>
    </g>
    <g id="ytick_6">
     <g id="line2d_46">
      <path d="M 57.6 43.2 
L 684 43.2 
" clip-path="url(#peaba2c450e)" style="fill: none; stroke: #cccccc; stroke-width: 1.3; stroke-linecap: round"/>
     </g>
     <g id="line2d_47"/>
     <g id="line2d_48"/>
     <g id="text_17">
      <!-- 1000 -->
      <g style="fill: #262626" transform="translate(22.5 46.323047) scale(0.13 -0.13)">
       <use xlink:href="#TimesNewRomanPSMT-31"/>
       <use xlink:href="#TimesNewRomanPSMT-30" x="50"/>
       <use xlink:href="#TimesNewRomanPSMT-30" x="100"/>
       <use xlink:href="#TimesNewRomanPSMT-30" x="150"/>
      </g>
     </g>
    </g>
    <g id="text_18">
     <!-- Frequency -->
     <g style="fill: #262626" transform="translate(14.414328 252.658586) rotate(-90) scale(0.143 -0.143)">
      <defs>
       <path id="TimesNewRomanPSMT-46" d="M 1309 4006 
L 1309 2341 
L 2081 2341 
Q 2347 2341 2470 2458 
Q 2594 2575 2634 2922 
L 2750 2922 
L 2750 1488 
L 2634 1488 
Q 2631 1734 2570 1850 
Q 2509 1966 2401 2023 
Q 2294 2081 2081 2081 
L 1309 2081 
L 1309 750 
Q 1309 428 1350 325 
Q 1381 247 1481 191 
Q 1619 116 1769 116 
L 1922 116 
L 1922 0 
L 103 0 
L 103 116 
L 253 116 
Q 516 116 634 269 
Q 709 369 709 750 
L 709 3488 
Q 709 3809 669 3913 
Q 638 3991 541 4047 
Q 406 4122 253 4122 
L 103 4122 
L 103 4238 
L 3256 4238 
L 3297 3306 
L 3188 3306 
Q 3106 3603 2998 3742 
Q 2891 3881 2733 3943 
Q 2575 4006 2244 4006 
L 1309 4006 
z
" transform="scale(0.015625)"/>
       <path id="TimesNewRomanPSMT-72" d="M 1038 2947 
L 1038 2303 
Q 1397 2947 1775 2947 
Q 1947 2947 2059 2842 
Q 2172 2738 2172 2600 
Q 2172 2478 2090 2393 
Q 2009 2309 1897 2309 
Q 1788 2309 1652 2417 
Q 1516 2525 1450 2525 
Q 1394 2525 1328 2463 
Q 1188 2334 1038 2041 
L 1038 669 
Q 1038 431 1097 309 
Q 1138 225 1241 169 
Q 1344 113 1538 113 
L 1538 0 
L 72 0 
L 72 113 
Q 291 113 397 181 
Q 475 231 506 341 
Q 522 394 522 644 
L 522 1753 
Q 522 2253 501 2348 
Q 481 2444 426 2487 
Q 372 2531 291 2531 
Q 194 2531 72 2484 
L 41 2597 
L 906 2947 
L 1038 2947 
z
" transform="scale(0.015625)"/>
       <path id="TimesNewRomanPSMT-71" d="M 2734 2947 
L 2734 -734 
Q 2734 -1009 2771 -1087 
Q 2809 -1166 2889 -1209 
Q 2969 -1253 3200 -1253 
L 3200 -1369 
L 1756 -1369 
L 1756 -1253 
L 1816 -1253 
Q 1991 -1253 2081 -1203 
Q 2144 -1169 2181 -1080 
Q 2219 -991 2219 -734 
L 2219 497 
Q 1934 159 1721 35 
Q 1509 -88 1281 -88 
Q 866 -88 539 290 
Q 213 669 213 1303 
Q 213 2031 644 2489 
Q 1075 2947 1684 2947 
Q 1863 2947 2013 2897 
Q 2163 2847 2281 2747 
Q 2463 2834 2628 2947 
L 2734 2947 
z
M 2219 694 
L 2219 2038 
Q 2219 2272 2158 2406 
Q 2097 2541 1940 2634 
Q 1784 2728 1588 2728 
Q 1238 2728 988 2431 
Q 738 2134 738 1531 
Q 738 953 992 653 
Q 1247 353 1606 353 
Q 1791 353 1934 433 
Q 2078 513 2219 694 
z
" transform="scale(0.015625)"/>
       <path id="TimesNewRomanPSMT-75" d="M 2709 2863 
L 2709 1128 
Q 2709 631 2732 520 
Q 2756 409 2807 365 
Q 2859 322 2928 322 
Q 3025 322 3147 375 
L 3191 266 
L 2334 -88 
L 2194 -88 
L 2194 519 
Q 1825 119 1631 15 
Q 1438 -88 1222 -88 
Q 981 -88 804 51 
Q 628 191 559 409 
Q 491 628 491 1028 
L 491 2306 
Q 491 2509 447 2587 
Q 403 2666 317 2708 
Q 231 2750 6 2747 
L 6 2863 
L 1009 2863 
L 1009 947 
Q 1009 547 1148 422 
Q 1288 297 1484 297 
Q 1619 297 1789 381 
Q 1959 466 2194 703 
L 2194 2325 
Q 2194 2569 2105 2655 
Q 2016 2741 1734 2747 
L 1734 2863 
L 2709 2863 
z
" transform="scale(0.015625)"/>
       <path id="TimesNewRomanPSMT-63" d="M 2631 1088 
Q 2516 522 2178 217 
Q 1841 -88 1431 -88 
Q 944 -88 581 321 
Q 219 731 219 1428 
Q 219 2103 620 2525 
Q 1022 2947 1584 2947 
Q 2006 2947 2278 2723 
Q 2550 2500 2550 2259 
Q 2550 2141 2473 2067 
Q 2397 1994 2259 1994 
Q 2075 1994 1981 2113 
Q 1928 2178 1911 2362 
Q 1894 2547 1784 2644 
Q 1675 2738 1481 2738 
Q 1169 2738 978 2506 
Q 725 2200 725 1697 
Q 725 1184 976 792 
Q 1228 400 1656 400 
Q 1963 400 2206 609 
Q 2378 753 2541 1131 
L 2631 1088 
z
" transform="scale(0.015625)"/>
      </defs>
      <use xlink:href="#TimesNewRomanPSMT-46"/>
      <use xlink:href="#TimesNewRomanPSMT-72" x="55.615234"/>
      <use xlink:href="#TimesNewRomanPSMT-65" x="88.916016"/>
      <use xlink:href="#TimesNewRomanPSMT-71" x="133.300781"/>
      <use xlink:href="#TimesNewRomanPSMT-75" x="183.300781"/>
      <use xlink:href="#TimesNewRomanPSMT-65" x="233.300781"/>
      <use xlink:href="#TimesNewRomanPSMT-6e" x="277.685547"/>
      <use xlink:href="#TimesNewRomanPSMT-63" x="327.685547"/>
      <use xlink:href="#TimesNewRomanPSMT-79" x="372.070312"/>
     </g>
    </g>
   </g>
   <g id="patch_3">
    <path d="M 72.912 401.76 
L 91.941006 401.76 
L 91.941006 55.39104 
L 72.912 55.39104 
z
" clip-path="url(#peaba2c450e)" style="fill: #4c72b0; stroke: #000000; stroke-width: 0.39; stroke-linejoin: miter"/>
   </g>
   <g id="patch_4">
    <path d="M 91.941006 401.76 
L 110.970012 401.76 
L 110.970012 91.24704 
L 91.941006 91.24704 
z
" clip-path="url(#peaba2c450e)" style="fill: #4c72b0; stroke: #000000; stroke-width: 0.39; stroke-linejoin: miter"/>
   </g>
   <g id="patch_5">
    <path d="M 110.970012 401.76 
L 129.999018 401.76 
L 129.999018 125.6688 
L 110.970012 125.6688 
z
" clip-path="url(#peaba2c450e)" style="fill: #4c72b0; stroke: #000000; stroke-width: 0.39; stroke-linejoin: miter"/>
   </g>
   <g id="patch_6">
    <path d="M 129.999018 401.76 
L 149.028024 401.76 
L 149.028024 175.8672 
L 129.999018 175.8672 
z
" clip-path="url(#peaba2c450e)" style="fill: #4c72b0; stroke: #000000; stroke-width: 0.39; stroke-linejoin: miter"/>
   </g>
   <g id="patch_7">
    <path d="M 149.028024 401.76 
L 168.05703 401.76 
L 168.05703 172.64016 
L 149.028024 172.64016 
z
" clip-path="url(#peaba2c450e)" style="fill: #4c72b0; stroke: #000000; stroke-width: 0.39; stroke-linejoin: miter"/>
   </g>
   <g id="patch_8">
    <path d="M 168.05703 401.76 
L 187.086036 401.76 
L 187.086036 198.45648 
L 168.05703 198.45648 
z
" clip-path="url(#peaba2c450e)" style="fill: #4c72b0; stroke: #000000; stroke-width: 0.39; stroke-linejoin: miter"/>
   </g>
   <g id="patch_9">
    <path d="M 187.086036 401.76 
L 206.115042 401.76 
L 206.115042 246.86208 
L 187.086036 246.86208 
z
" clip-path="url(#peaba2c450e)" style="fill: #4c72b0; stroke: #000000; stroke-width: 0.39; stroke-linejoin: miter"/>
   </g>
   <g id="patch_10">
    <path d="M 206.115042 401.76 
L 225.144048 401.76 
L 225.144048 258.336 
L 206.115042 258.336 
z
" clip-path="url(#peaba2c450e)" style="fill: #4c72b0; stroke: #000000; stroke-width: 0.39; stroke-linejoin: miter"/>
   </g>
   <g id="patch_11">
    <path d="M 225.144048 401.76 
L 244.173054 401.76 
L 244.173054 279.8496 
L 225.144048 279.8496 
z
" clip-path="url(#peaba2c450e)" style="fill: #4c72b0; stroke: #000000; stroke-width: 0.39; stroke-linejoin: miter"/>
   </g>
   <g id="patch_12">
    <path d="M 244.173054 401.76 
L 263.20206 401.76 
L 263.20206 314.62992 
L 244.173054 314.62992 
z
" clip-path="url(#peaba2c450e)" style="fill: #4c72b0; stroke: #000000; stroke-width: 0.39; stroke-linejoin: miter"/>
   </g>
   <g id="patch_13">
    <path d="M 263.20206 401.76 
L 282.231066 401.76 
L 282.231066 314.27136 
L 263.20206 314.27136 
z
" clip-path="url(#peaba2c450e)" style="fill: #4c72b0; stroke: #000000; stroke-width: 0.39; stroke-linejoin: miter"/>
   </g>
   <g id="patch_14">
    <path d="M 282.231066 401.76 
L 301.260073 401.76 
L 301.260073 326.82096 
L 282.231066 326.82096 
z
" clip-path="url(#peaba2c450e)" style="fill: #4c72b0; stroke: #000000; stroke-width: 0.39; stroke-linejoin: miter"/>
   </g>
   <g id="patch_15">
    <path d="M 301.260073 401.76 
L 320.289079 401.76 
L 320.289079 341.88048 
L 301.260073 341.88048 
z
" clip-path="url(#peaba2c450e)" style="fill: #4c72b0; stroke: #000000; stroke-width: 0.39; stroke-linejoin: miter"/>
   </g>
   <g id="patch_16">
    <path d="M 320.289079 401.76 
L 339.318085 401.76 
L 339.318085 350.48592 
L 320.289079 350.48592 
z
" clip-path="url(#peaba2c450e)" style="fill: #4c72b0; stroke: #000000; stroke-width: 0.39; stroke-linejoin: miter"/>
   </g>
   <g id="patch_17">
    <path d="M 339.318085 401.76 
L 358.347091 401.76 
L 358.347091 354.43008 
L 339.318085 354.43008 
z
" clip-path="url(#peaba2c450e)" style="fill: #4c72b0; stroke: #000000; stroke-width: 0.39; stroke-linejoin: miter"/>
   </g>
   <g id="patch_18">
    <path d="M 358.347091 401.76 
L 377.376097 401.76 
L 377.376097 366.62112 
L 358.347091 366.62112 
z
" clip-path="url(#peaba2c450e)" style="fill: #4c72b0; stroke: #000000; stroke-width: 0.39; stroke-linejoin: miter"/>
   </g>
   <g id="patch_19">
    <path d="M 377.376097 401.76 
L 396.405103 401.76 
L 396.405103 371.99952 
L 377.376097 371.99952 
z
" clip-path="url(#peaba2c450e)" style="fill: #4c72b0; stroke: #000000; stroke-width: 0.39; stroke-linejoin: miter"/>
   </g>
   <g id="patch_20">
    <path d="M 396.405103 401.76 
L 415.434109 401.76 
L 415.434109 375.94368 
L 396.405103 375.94368 
z
" clip-path="url(#peaba2c450e)" style="fill: #4c72b0; stroke: #000000; stroke-width: 0.39; stroke-linejoin: miter"/>
   </g>
   <g id="patch_21">
    <path d="M 415.434109 401.76 
L 434.463115 401.76 
L 434.463115 380.60496 
L 415.434109 380.60496 
z
" clip-path="url(#peaba2c450e)" style="fill: #4c72b0; stroke: #000000; stroke-width: 0.39; stroke-linejoin: miter"/>
   </g>
   <g id="patch_22">
    <path d="M 434.463115 401.76 
L 453.492121 401.76 
L 453.492121 378.4536 
L 434.463115 378.4536 
z
" clip-path="url(#peaba2c450e)" style="fill: #4c72b0; stroke: #000000; stroke-width: 0.39; stroke-linejoin: miter"/>
   </g>
   <g id="patch_23">
    <path d="M 453.492121 401.76 
L 472.521127 401.76 
L 472.521127 385.6248 
L 453.492121 385.6248 
z
" clip-path="url(#peaba2c450e)" style="fill: #4c72b0; stroke: #000000; stroke-width: 0.39; stroke-linejoin: miter"/>
   </g>
   <g id="patch_24">
    <path d="M 472.521127 401.76 
L 491.550133 401.76 
L 491.550133 388.13472 
L 472.521127 388.13472 
z
" clip-path="url(#peaba2c450e)" style="fill: #4c72b0; stroke: #000000; stroke-width: 0.39; stroke-linejoin: miter"/>
   </g>
   <g id="patch_25">
    <path d="M 491.550133 401.76 
L 510.579139 401.76 
L 510.579139 387.4176 
L 491.550133 387.4176 
z
" clip-path="url(#peaba2c450e)" style="fill: #4c72b0; stroke: #000000; stroke-width: 0.39; stroke-linejoin: miter"/>
   </g>
   <g id="patch_26">
    <path d="M 510.579139 401.76 
L 529.608145 401.76 
L 529.608145 392.43744 
L 510.579139 392.43744 
z
" clip-path="url(#peaba2c450e)" style="fill: #4c72b0; stroke: #000000; stroke-width: 0.39; stroke-linejoin: miter"/>
   </g>
   <g id="patch_27">
    <path d="M 529.608145 401.76 
L 548.637151 401.76 
L 548.637151 387.05904 
L 529.608145 387.05904 
z
" clip-path="url(#peaba2c450e)" style="fill: #4c72b0; stroke: #000000; stroke-width: 0.39; stroke-linejoin: miter"/>
   </g>
   <g id="patch_28">
    <path d="M 548.637151 401.76 
L 567.666157 401.76 
L 567.666157 388.13472 
L 548.637151 388.13472 
z
" clip-path="url(#peaba2c450e)" style="fill: #4c72b0; stroke: #000000; stroke-width: 0.39; stroke-linejoin: miter"/>
   </g>
   <g id="patch_29">
    <path d="M 567.666157 401.76 
L 586.695163 401.76 
L 586.695163 390.64464 
L 567.666157 390.64464 
z
" clip-path="url(#peaba2c450e)" style="fill: #4c72b0; stroke: #000000; stroke-width: 0.39; stroke-linejoin: miter"/>
   </g>
   <g id="patch_30">
    <path d="M 586.695163 401.76 
L 605.724169 401.76 
L 605.724169 392.43744 
L 586.695163 392.43744 
z
" clip-path="url(#peaba2c450e)" style="fill: #4c72b0; stroke: #000000; stroke-width: 0.39; stroke-linejoin: miter"/>
   </g>
   <g id="patch_31">
    <path d="M 605.724169 401.76 
L 624.753175 401.76 
L 624.753175 392.796 
L 605.724169 392.796 
z
" clip-path="url(#peaba2c450e)" style="fill: #4c72b0; stroke: #000000; stroke-width: 0.39; stroke-linejoin: miter"/>
   </g>
   <g id="patch_32">
    <path d="M 624.753175 401.76 
L 643.782181 401.76 
L 643.782181 328.61376 
L 624.753175 328.61376 
z
" clip-path="url(#peaba2c450e)" style="fill: #4c72b0; stroke: #000000; stroke-width: 0.39; stroke-linejoin: miter"/>
   </g>
   <g id="patch_33">
    <path d="M 57.6 401.76 
L 57.6 43.2 
" style="fill: none; stroke: #cccccc; stroke-linejoin: miter; stroke-linecap: square"/>
   </g>
   <g id="patch_34">
    <path d="M 684 401.76 
L 684 43.2 
" style="fill: none; stroke: #cccccc; stroke-linejoin: miter; stroke-linecap: square"/>
   </g>
   <g id="patch_35">
    <path d="M 57.6 401.76 
L 684 401.76 
" style="fill: none; stroke: #cccccc; stroke-linejoin: miter; stroke-linecap: square"/>
   </g>
   <g id="patch_36">
    <path d="M 57.6 43.2 
L 684 43.2 
" style="fill: none; stroke: #cccccc; stroke-linejoin: miter; stroke-linecap: square"/>
   </g>
  </g>
 </g>
 <defs>
  <clipPath id="peaba2c450e">
   <rect x="57.6" y="43.2" width="626.4" height="358.56"/>
  </clipPath>
 </defs>
</svg>
